<?xml version="1.0" encoding="UTF-8" standalone="no"?>
<!-- Created with Inkscape (http://www.inkscape.org/) -->

<svg
   xmlns:dc="http://purl.org/dc/elements/1.1/"
   xmlns:cc="http://creativecommons.org/ns#"
   xmlns:rdf="http://www.w3.org/1999/02/22-rdf-syntax-ns#"
   xmlns:svg="http://www.w3.org/2000/svg"
   xmlns="http://www.w3.org/2000/svg"
   xmlns:sodipodi="http://sodipodi.sourceforge.net/DTD/sodipodi-0.dtd"
   xmlns:inkscape="http://www.inkscape.org/namespaces/inkscape"
   version="1.1"
   id="svg2"
   width="32"
   height="32"
   viewBox="0 0 32 32"
   sodipodi:docname="togglecookies.svg"
   inkscape:version="0.92.4 5da689c313, 2019-01-14">
  <metadata
     id="metadata8">
    <rdf:RDF>
      <cc:Work
         rdf:about="">
        <dc:format>image/svg+xml</dc:format>
        <dc:type
           rdf:resource="http://purl.org/dc/dcmitype/StillImage" />
        <dc:title />
      </cc:Work>
    </rdf:RDF>
  </metadata>
  <defs
     id="defs6" />
  <sodipodi:namedview
     pagecolor="#ffffff"
     bordercolor="#666666"
     borderopacity="1"
     objecttolerance="10"
     gridtolerance="10"
     guidetolerance="10"
     inkscape:pageopacity="0"
     inkscape:pageshadow="2"
     inkscape:window-width="1819"
     inkscape:window-height="1009"
     id="namedview4"
     showgrid="false"
     inkscape:zoom="16.000001"
     inkscape:cx="10.68153"
     inkscape:cy="12.669187"
     inkscape:window-x="53"
     inkscape:window-y="326"
     inkscape:window-maximized="0"
     inkscape:current-layer="g1668" />
  <g
     id="g1668"
     style="opacity:0.8">
    <path
       id="path3865"
       d="m 3.3885157,24.579003 c -0.2488335,0.0352 -0.4943067,0.195667 -0.6308594,0.367188 -0.1365527,0.171521 -0.2003689,0.343857 -0.2480468,0.517578 a 0.74123332,0.74123332 0 0 0 -0.019531,0.289062 c 0.037602,0.296387 0.1286416,0.460193 0.1367187,0.488282 0.00808,0.02809 0.019711,-0.02522 -0.019531,0.111328 a 0.74123332,0.74123332 0 0 0 -0.015626,0.06445 c -0.030959,0.15965 -0.1433556,0.324815 0.09375,0.722656 0.1185528,0.198921 0.433878,0.380782 0.6601562,0.388672 0.2262783,0.0079 0.3533552,-0.05674 0.4511719,-0.107422 a 0.74123332,0.74123332 0 0 0 0.080078,-0.04883 c 0.1394032,-0.09667 0.1742755,-0.129234 0.2421876,-0.185547 0.034105,0.01815 0.035575,0.03044 0.099609,0.05078 0.077293,0.02456 0.1937236,0.05276 0.3535157,0.02734 0.1597924,-0.02541 0.3499765,-0.129749 0.4570316,-0.255852 0.2141107,-0.252203 0.1841421,-0.423405 0.1835943,-0.517575 -5.479e-4,-0.09417 -0.010801,-0.149809 -0.021484,-0.205078 -0.021366,-0.110539 -0.050965,-0.211739 -0.09375,-0.351563 A 0.74123332,0.74123332 0 0 0 4.7029688,25.479394 c -0.056934,-0.02662 -0.043706,-0.02027 -0.064453,-0.0332 -0.0279,-0.123344 -0.052236,-0.264588 -0.1503906,-0.394531 A 0.74123332,0.74123332 0 0 0 4.3767969,24.934472 C 4.1609238,24.750769 3.886139,24.508613 3.3885157,24.579003 Z"
       style="fill:#0c0c0d;fill-opacity:1;stroke:none;stroke-width:0.04491399px"
       inkscape:connector-curvature="0" />
    <path
       id="path3873"
       d="m 7.8699477,28.374427 c -0.216719,0.05469 -0.340399,0.195851 -0.429688,0.328125 a 0.47705801,0.47705801 0 0 0 -0.02539,0.04102 c -0.06735,0.125168 -0.07916,0.151567 -0.201171,0.19336 l 0.0293,-0.0098 c -0.223025,0.06056 -0.376244,0.119518 -0.574218,0.345703 -0.04949,0.05655 -0.109385,0.130339 -0.140625,0.271485 -0.03124,0.141146 0.0224,0.365251 0.132812,0.482422 0.131822,0.13989 0.230532,0.108921 0.337891,0.123046 0.006,0.0061 0.01134,0.0097 0.01758,0.01563 -0.0055,-0.0037 -0.0063,-0.0095 -0.01172,-0.01367 0.07053,0.0086 0.152313,0.07803 0.222656,0.08008 l -0.05273,-0.0039 c -0.02513,-0.0035 -0.08389,-0.01282 -0.158203,-0.0625 0.02832,0.02682 0.04074,0.06015 0.07227,0.07812 0.181709,0.103631 0.284864,0.0809 0.396484,0.07422 0.08951,-0.0054 0.212663,-0.02646 0.347656,-0.04883 -0.0024,0.0035 0.109136,0.03867 0.300781,0.07031 0.101409,0.01674 0.240375,0.03482 0.41211,-0.0293 0.171735,-0.06411 0.331125,-0.238987 0.3925783,-0.404297 a 0.47705801,0.47705801 0 0 0 0.01758,-0.269531 c 0.0036,0.01626 0.0093,-0.0261 0.0059,-0.183594 -0.0035,-0.157492 -0.07394,-0.415605 -0.2382813,-0.603516 -0.03601,-0.04127 -0.09571,-0.186876 -0.3125,-0.353515 -0.107536,-0.08266 -0.324297,-0.175786 -0.541015,-0.121094 z"
       style="fill:#0c0c0d;fill-opacity:1;stroke:none;stroke-width:0.04491399px"
       inkscape:connector-curvature="0" />
    <path
       id="path3063"
       style="stroke:none;stroke-width:0.04491399px;fill:#0c0c0d;fill-opacity:1"
       inkscape:connector-curvature="0"
       d="m 15.938848,8.9756634 c -0.840925,0.1322582 -1.595974,0.9553654 -1.769432,1.7013866 -0.334043,0.596233 0.217923,2.065459 0.368632,2.115359 0.09074,0.272219 1.015146,0.606833 1.015146,0.606833 1.435496,0.386745 2.038062,-0.423216 2.427287,-1.338437 0.192326,-0.500252 0.413505,-1.511131 0.243865,-1.792113 C 17.829852,9.5009325 17.593843,9.3188511 16.953998,9.0663896 16.62415,8.9325998 16.343123,8.8957434 15.938852,8.9756499 Z" />
    <path
       sodipodi:nodetypes="sccscccccccccccccccccccccccsccccsccccssccccccccccccccccccccccccc"
       inkscape:connector-curvature="0"
       id="path1550"
       d="M 15.560547,0.65625 C 15.034171,0.650418 14.495917,0.6675169 13.931641,0.7246094 12.420555,0.8774966 10.723264,1.1588263 9.3339844,2.2832031 8.0112674,3.3537281 6.8910721,3.8393528 5.4433594,4.5917969 3.8865058,5.4009673 3.9187008,7.6365543 2.2148438,8.8359375 1.0605721,9.7506109 1.676445,12.121563 0.80664062,14.064453 c -0.3059451,0.683411 0.29228578,1.553991 0.37695318,2.316406 0.2040307,1.837355 -0.00576,1.481611 0.1308593,2.253907 0.2303998,1.11901 0.1636894,1.127085 0.3867188,1.521484 0.2971959,0.700932 0.5703186,0.639952 1.4511719,0.154297 0.1655529,-0.06683 0.6992129,0.371814 0.8554687,0.685547 0.2088949,0.41943 0.4160501,-0.479374 1.0019531,-0.394532 0.4280843,0.621215 0.4405269,0.476096 0.6738282,0.763672 0.438136,0.540073 0.7070297,-0.117703 1.140625,-0.08594 0.5770684,0.04226 0.296393,1.16154 0.7304687,1.408203 0.4730791,0.268837 1.1852039,-0.04336 1.3984375,0.138672 0.426117,0.363758 -0.038946,0.801079 0.2753906,1.259766 0.2602316,0.379668 0.7200351,-0.362921 1.0351564,-0.0059 0.624603,0.70771 -0.07731,1.029895 0.002,1.41211 0.07559,0.364703 0.818044,-0.09851 1.138672,0.06836 0.529406,0.275511 0.438038,0.236424 0.550781,0.439453 0.110192,0.198443 -0.108218,0.240005 -0.173828,0.464844 -0.06696,0.229466 -0.441887,0.777919 -0.429688,0.984375 0.02003,0.338786 0.180114,0.347415 0.59961,0.949219 0.206004,0.295488 0.283092,0.896833 0.232422,1.121093 0.425021,1.061905 0.700863,0.958319 2.136718,1.115235 1.070391,0.116956 2.930833,-0.506698 4.105469,-0.580078 2.236088,-0.139683 1.120217,-0.509594 4.792969,-1.595704 1.166281,-0.344895 1.589226,-1.154973 3.492188,-1.978515 1.294309,-0.560168 0.6806,-1.637883 1.601562,-2.41211 0.497153,-0.417925 1.46233,-2.953878 2.015625,-3.539062 0.345824,-0.365735 0.610732,-1.954801 0.513672,-2.878906 -0.04719,-0.44932 -0.127759,-1.346093 -0.273438,-1.875 -0.281065,-1.020446 -0.0053,-2.112095 0.04883,-2.548829 C 30.841039,11.421379 29.07029,9.3726431 28.818359,8.5410156 28.451097,7.3285176 28.249676,6.507238 26.894531,5.3710938 26.335577,4.9024612 25.583071,4.1858064 24.798828,3.3164062 23.504362,1.8814044 22.563837,0.82216695 20.382812,0.86328125 18.614425,0.89661642 17.139674,0.67374498 15.560547,0.65625 Z m 1.496591,2.99931 c 0.753261,0.029129 1.558669,-0.01271 2.927965,0.2006363 1.756856,0.3760748 1.803073,0.222722 3.038334,1.3625536 0.251968,0.2523268 0.59504,0.8003534 0.90001,1.0783529 0.504879,0.4602786 1.081622,1.3808787 1.51011,1.8951439 0.274066,0.32895 0.478742,2.0175773 0.729281,2.3309963 1.139513,1.42548 0.911976,1.745173 1.143729,3.038337 0.07563,0.421967 -0.01647,1.488857 -0.02037,1.885033 -0.0096,0.984246 -0.212259,1.409426 0.0108,2.480086 -0.438007,2.172637 -0.566506,2.025654 -1.589692,3.689493 -0.611728,0.9948 -0.962488,0.968436 -1.33747,1.464691 -1.403038,1.407365 -3.256485,2.292957 -4.154105,2.770375 -1.264393,0.866328 -3.240857,1.346973 -3.918478,1.441519 C 15.31022,28.12653 13.165643,22.549404 12.088769,21.399052 10.802706,20.415771 10.370681,19.646585 9.5236263,19.503755 8.7381343,19.059094 7.5225719,19.220887 7.5284903,18.754521 6.0292899,18.321695 5.0615237,17.641932 4.505856,17.367572 4.3116214,15.776234 4.127916,15.712008 4.1276397,14.325712 4.531162,12.652503 3.8040758,12.871654 4.5294857,11.776692 4.8483016,10.397387 4.6169616,10.935166 5.1744769,9.6109059 5.9834904,8.3703999 6.08975,7.6719219 7.1978389,6.9019971 7.9351469,6.5261119 9.8423104,5.5462715 10.435355,5.1085307 c 1.416006,-0.1889474 1.319486,-0.8856431 2.178156,-1.0819935 0.504325,0.00591 0.887439,-0.297157 2.571464,-0.4453128 1.072893,-0.00156 1.090206,-0.013034 1.872163,0.074336 z"
       style="fill:#0c0c0d;fill-opacity:1;stroke:none;stroke-width:0.04491399" />
    <path
       inkscape:connector-curvature="0"
       id="path1546"
       d="m 12.900087,25.272542 c -1.227634,-1.597411 -0.980292,-3.536393 1.037603,-3.536393 0.430258,0 0.601938,0.04696 0.928328,0.253962 1.274344,0.808137 1.274344,2.474266 0,3.282449 -0.337179,0.213835 -0.476448,0.542695 -0.966954,0.542695 -0.49046,0 -0.661852,-0.103953 -0.999021,-0.542695 z"
       style="stroke-width:0.04491399;stroke:none;fill:#0c0c0d;fill-opacity:1" />
    <path
       inkscape:connector-curvature="0"
       id="path1544"
       d="m 21.31801,22.451014 c 0.718849,-0.489293 1.352944,-0.0141 1.894562,0.717277 0.195938,0.264584 0.851704,1.319932 0.765514,1.779312 -0.116381,0.620352 -0.315767,1.531073 -1.004546,1.531073 -1.87727,-0.139143 -2.98979,-2.993652 -1.65553,-4.027662 z"
       style="stroke-width:0.04491399;stroke:none;fill:#0c0c0d;fill-opacity:1" />
    <path
       inkscape:connector-curvature="0"
       id="path1542"
       d="M 5.987811,19.257893 C 4.8673866,18.198282 5.4947901,17.094835 5.7242602,16.630694 6.4536185,15.173055 7.6257838,16.075198 8.4611391,17.482488 9.311316,18.914705 7.0343563,20.05314 5.9878155,19.257893 Z"
       style="stroke-width:0.04491399;stroke:none;fill:#0c0c0d;fill-opacity:1" />
    <path
       inkscape:connector-curvature="0"
       id="path1540"
       d="m 15.585741,16.560901 c 0.55105,1.087053 0.559269,2.716847 -0.603554,2.959203 -0.502318,0.10469 -1.222424,0.13242 -1.681939,-0.07924 -3.196035,-2.246328 0.632119,-5.832979 2.285493,-2.87993 z"
       style="stroke-width:0.04491399;stroke:none;fill:#0c0c0d;fill-opacity:1" />
    <path
       id="path1538"
       d="m 23.064784,17.514855 c -0.859385,-0.296832 -1.368125,-1.021299 -1.368125,-1.948324 0,-0.783749 0.469081,-1.296307 1.057814,-1.619508 0.408717,-0.224373 0.839847,-0.416245 1.358109,-0.300259 0.863472,0.193233 1.481129,0.655924 1.676415,1.528423 0.223838,1.000234 -0.422964,2.070625 -1.432352,2.370381 -0.578268,0.171728 -0.715121,0.168472 -1.291861,-0.03073 z"
       style="stroke-width:0.04491399;stroke:none;fill:#0c0c0d;fill-opacity:1" />
    <path
       id="path1536"
       d="m 25.296964,12.693114 c -0.40816,-0.149397 -0.618555,-0.646492 -0.84335,-1.00522 -0.199158,-0.317807 -0.232318,-0.866301 -0.232318,-1.266979 0,-0.6170731 0.181758,-0.7686129 0.631671,-1.2005058 0.536767,-0.5152533 1.097159,-0.5600325 1.819196,-0.3052759 0.798436,0.2817095 1.311578,1.0217035 1.311578,1.8914177 0,1.414297 -1.36278,2.371189 -2.686799,1.886523 z"
       style="stroke-width:0.04491399;stroke:none;fill:#0c0c0d;fill-opacity:1" />
    <path
       inkscape:connector-curvature="0"
       id="path3822"
       d="M 8.9591051,10.947438 C 7.4152765,10.143387 7.9025933,8.4894745 9.4826225,7.7905679 10.56716,7.3108416 11.539997,7.332041 11.868903,8.4297838 c 0.223999,0.7476383 -0.0072,1.7058782 -0.526797,2.1830442 -0.619408,0.568836 -1.6542715,0.714178 -2.3830009,0.334628 z"
       style="fill:#0c0c0d;fill-opacity:1;stroke:none;stroke-width:0.04491399" />
    <path
       id="path3181"
       style="fill:#a05a2c;stroke-width:0.04491399"
       inkscape:connector-curvature="0"
       d="m 9.6536639,21.149071 c 4.49e-5,-1.35e-4 0.012014,-0.0022 0.036376,-0.0062 0.062372,-0.01032 0.07846,-0.01275 0.1153886,-0.01747 2.694e-4,-3.8e-5 4.626e-4,1.3e-5 4.042e-4,1.34e-4 -3.55e-5,9e-5 -0.00507,9.26e-4 -0.011628,0.0019 -0.026684,0.0039 -0.059749,0.0091 -0.1091994,0.01698 -0.016933,0.0027 -0.030934,0.0049 -0.031112,0.0049 -1.797e-4,0 -3.144e-4,-9e-5 -2.695e-4,-2.25e-4 z" />
    <path
       id="path3063-5"
       style="stroke:none;stroke-width:0.04491399px;stroke-opacity:1;fill:#0c0c0d;fill-opacity:1"
       inkscape:connector-curvature="0"
       d="m 16.028398,2.0941297 c -0.840925,0.132258 -1.595974,0.955365 -1.769432,1.701387 -0.334043,0.596233 0.217923,2.065459 0.368632,2.115359 0.09074,0.272219 1.015146,0.606833 1.015146,0.606833 1.435496,0.386745 2.038062,-0.423216 2.427287,-1.338437 0.192326,-0.500252 0.413505,-1.511131 0.243865,-1.792114 -0.394494,-0.767759 -0.630503,-0.949841 -1.270348,-1.202302 -0.329848,-0.13379 -0.610875,-0.170646 -1.015146,-0.09074 z" />
  </g>
</svg>
